<?xml version="1.0" standalone="no"?>
<!DOCTYPE svg PUBLIC "-//W3C//DTD SVG 20010904//EN"
 "http://www.w3.org/TR/2001/REC-SVG-20010904/DTD/svg10.dtd">
<svg version="1.0" xmlns="http://www.w3.org/2000/svg"
 width="512.000000pt" height="512.000000pt" viewBox="0 0 512.000000 512.000000"
 preserveAspectRatio="xMidYMid meet">
<metadata>
Created by potrace 1.16, written by Peter Selinger 2001-2019
</metadata>
<g transform="translate(0.000000,512.000000) scale(0.100000,-0.100000)"
fill="#000000" stroke="none">
<path d="M3034 5090 c-23 -16 -160 -94 -305 -173 -358 -195 -549 -315 -656
-411 -151 -136 -270 -365 -305 -585 l-12 -79 -51 20 c-209 85 -537 103 -765
42 -435 -117 -780 -456 -897 -878 -64 -233 -57 -529 17 -746 31 -90 73 -181
115 -251 l37 -59 -46 -78 c-107 -184 -157 -362 -164 -590 -6 -196 11 -307 70
-477 129 -367 464 -678 842 -782 228 -62 509 -58 731 13 359 114 663 404 796
759 l20 54 79 -63 c229 -180 488 -268 790 -267 187 1 350 35 505 106 81 36 98
57 98 119 0 32 -6 45 -32 68 -40 36 -81 36 -157 3 -133 -59 -268 -86 -428 -86
-277 1 -520 100 -725 296 l-75 72 3 114 c5 245 -59 479 -191 702 -23 38 -23
38 -4 70 82 136 140 277 166 403 11 52 19 64 90 136 370 369 949 410 1371 97
179 -133 318 -336 385 -564 36 -123 44 -329 20 -465 -10 -51 -15 -108 -11
-126 8 -45 47 -74 99 -74 49 0 79 18 94 57 24 61 42 200 42 325 l0 131 69 72
c164 173 293 429 375 748 52 201 96 514 96 690 0 107 -1 109 -29 138 -40 40
-79 38 -182 -10 -46 -22 -125 -51 -175 -65 -113 -33 -334 -66 -439 -66 -362
-1 -620 -94 -844 -306 -55 -51 -75 -64 -100 -64 l-32 0 35 63 c124 221 190
526 190 872 0 260 -27 442 -96 655 -51 159 -166 360 -248 434 -53 47 -105 49
-166 6z m135 -326 c49 -89 106 -254 131 -382 98 -504 -5 -1052 -246 -1314 -32
-35 -54 -48 -105 -62 -94 -28 -274 -116 -354 -175 l-70 -51 -7 37 c-16 89 -20
263 -9 368 22 203 69 369 157 554 63 134 68 169 25 212 -32 32 -79 38 -126 17
-50 -23 -187 -336 -225 -513 -20 -92 -17 -91 -67 -23 -64 88 -176 201 -250
254 -72 52 -73 54 -49 191 19 108 55 207 108 301 98 173 238 275 823 595 219
120 191 120 264 -9z m-1654 -1062 c139 -39 240 -86 345 -160 388 -274 546
-761 389 -1208 -24 -71 -66 -159 -85 -183 -1 -1 -36 25 -76 59 -260 219 -545
319 -873 307 -149 -6 -244 -23 -365 -64 -156 -53 -344 -165 -451 -269 l-45
-45 -42 88 c-82 176 -107 301 -99 499 6 157 26 244 84 377 128 292 395 519
701 596 118 30 117 30 287 26 121 -3 177 -8 230 -23z m3383 -453 c-33 -343
-129 -686 -253 -904 -44 -77 -105 -164 -116 -165 -3 0 -13 24 -22 53 -42 132
-149 306 -265 428 l-64 69 53 25 c74 33 158 54 259 64 102 9 127 21 146 68 19
44 11 83 -23 117 -23 23 -33 26 -102 26 -143 0 -331 -53 -459 -129 l-53 -31
-111 55 c-61 31 -138 63 -170 72 -32 9 -58 20 -58 24 0 15 139 99 214 129 113
45 189 58 407 70 256 13 438 43 574 94 22 8 42 15 46 15 3 1 1 -36 -3 -80z
m-3465 -954 c439 -76 786 -423 862 -862 86 -492 -203 -988 -677 -1163 -130
-47 -177 -54 -358 -55 -151 0 -186 3 -257 23 -381 104 -661 384 -765 765 -20
71 -23 106 -23 257 1 181 8 228 55 358 175 474 671 763 1163 677z"/>
<path d="M2831 4329 c-75 -70 -35 -184 66 -184 38 0 49 5 74 33 63 71 20 172
-73 172 -31 0 -51 -6 -67 -21z"/>
<path d="M1005 3631 c-42 -17 -57 -48 -65 -126 -9 -92 -37 -133 -121 -180
-105 -59 -114 -148 -20 -205 107 -65 141 -111 141 -190 0 -62 23 -107 65 -127
35 -17 39 -16 83 1 26 10 65 24 87 33 58 22 146 13 223 -22 56 -25 66 -27 101
-16 49 14 71 47 71 108 1 90 49 161 142 209 54 27 68 48 68 99 0 51 -13 70
-68 101 -99 57 -141 119 -142 209 0 53 -17 84 -57 104 -35 18 -69 13 -126 -16
-74 -40 -177 -40 -261 0 -60 28 -86 32 -121 18z m394 -297 c10 -22 33 -57 50
-76 l32 -37 -35 -49 c-20 -27 -42 -64 -50 -82 l-14 -33 -122 -1 -121 -1 -31
57 c-16 31 -41 66 -54 79 l-23 22 34 40 c19 22 42 58 51 81 l17 41 124 -1 125
0 17 -40z"/>
<path d="M1210 3307 c-14 -7 -33 -29 -44 -50 -16 -34 -17 -42 -4 -75 41 -108
198 -82 198 32 -1 81 -78 129 -150 93z"/>
<path d="M581 1442 c-23 -23 -29 -38 -34 -98 -10 -118 -50 -184 -144 -240 -49
-29 -65 -53 -65 -100 0 -45 23 -79 71 -103 45 -24 98 -81 118 -130 8 -19 17
-68 20 -108 5 -60 10 -78 31 -98 35 -35 90 -33 166 5 81 41 148 41 234 0 127
-60 185 -31 195 96 3 39 12 87 20 106 20 48 73 106 118 128 49 25 69 55 69
103 0 52 -13 72 -65 102 -94 55 -145 146 -145 258 0 40 -5 53 -29 78 -39 39
-83 38 -160 -2 -47 -25 -71 -31 -121 -31 -50 0 -74 6 -121 31 -76 40 -121 41
-158 3z m279 -245 c42 0 85 3 97 7 17 5 23 -1 38 -41 15 -41 38 -78 89 -147 6
-8 -3 -28 -26 -58 -19 -25 -45 -70 -57 -99 l-23 -54 -118 0 -118 0 -26 61
c-15 34 -42 79 -60 101 l-33 38 33 38 c18 21 45 67 60 103 24 54 31 63 48 58
11 -4 54 -7 96 -7z"/>
<path d="M815 1096 c-82 -36 -73 -165 13 -190 69 -19 132 26 132 94 0 50 -22
85 -62 99 -39 14 -46 13 -83 -3z"/>
<path d="M3104 1919 c-53 -15 -66 -40 -74 -137 -11 -131 -46 -190 -151 -258
-68 -44 -83 -65 -81 -117 1 -40 26 -73 71 -96 53 -27 126 -112 145 -168 9 -26
16 -75 16 -111 0 -59 2 -66 34 -98 44 -44 70 -44 165 4 64 31 86 37 141 37 55
0 77 -6 141 -37 91 -46 118 -47 161 -9 31 27 33 34 39 117 7 101 26 147 85
207 21 21 55 47 75 58 48 24 69 54 69 100 0 56 -7 66 -80 113 -105 68 -140
130 -150 259 -7 100 -21 123 -83 137 -32 7 -47 3 -109 -29 -65 -32 -82 -36
-148 -36 -64 0 -84 4 -130 29 -73 38 -99 44 -136 35z m296 -276 c47 3 91 6 99
8 8 3 18 -12 26 -38 15 -51 56 -122 95 -166 l29 -33 -36 -45 c-31 -38 -79
-128 -96 -181 -5 -15 -14 -17 -54 -10 -26 4 -68 7 -93 7 -25 0 -67 -3 -93 -7
-40 -7 -49 -5 -54 10 -18 56 -65 143 -97 181 l-37 44 24 26 c49 53 71 95 110
203 5 14 12 15 49 6 24 -5 81 -8 128 -5z"/>
<path d="M3343 1473 c-28 -5 -71 -49 -75 -76 -11 -75 30 -127 99 -127 36 0 50
6 74 29 40 40 41 106 3 145 -15 14 -32 26 -40 26 -7 0 -18 2 -26 4 -7 2 -23 1
-35 -1z"/>
<path d="M4184 1182 c-89 -72 -30 -209 80 -188 82 16 112 121 51 182 -30 30
-98 33 -131 6z"/>
</g>
</svg>
