<?xml version="1.0" standalone="no"?>
<!DOCTYPE svg PUBLIC "-//W3C//DTD SVG 20010904//EN"
 "http://www.w3.org/TR/2001/REC-SVG-20010904/DTD/svg10.dtd">
<svg version="1.0" xmlns="http://www.w3.org/2000/svg"
 width="300.000000pt" height="300.000000pt" viewBox="0 0 300.000000 300.000000"
 preserveAspectRatio="xMidYMid meet">
<metadata>
Created by potrace 1.10, written by Peter Selinger 2001-2011
</metadata>
<g transform="translate(0.000000,300.000000) scale(0.100000,-0.100000)"
fill="#000000" stroke="none">
<path d="M1346 2945 c-216 -55 -400 -226 -468 -435 -15 -48 -22 -103 -27 -210
l-6 -145 -293 -5 c-291 -5 -294 -5 -312 -28 -11 -13 -22 -42 -25 -65 -9 -66
-215 -1924 -215 -1941 0 -8 12 -28 26 -45 l26 -31 1448 0 1448 0 26 31 c14 17
26 37 26 45 0 15 -173 1567 -205 1846 -13 110 -26 160 -48 180 -1 1 -135 5
-297 8 l-295 5 -6 145 c-5 121 -10 157 -32 218 -36 103 -81 174 -158 251 -77
77 -148 122 -251 158 -92 33 -268 41 -362 18z m224 -165 c78 -13 189 -64 246
-114 53 -46 109 -130 136 -204 16 -45 21 -83 22 -182 l1 -125 -475 0 -475 0 1
125 c1 99 6 137 22 182 27 74 83 158 136 204 72 64 201 115 306 123 8 0 44 -4
80 -9z m-722 -896 l3 -92 -45 -26 c-121 -71 -169 -224 -107 -343 26 -51 87
-108 136 -129 58 -24 153 -22 208 5 88 43 157 149 157 241 0 85 -57 180 -136
226 l-44 26 0 94 0 94 480 0 480 0 0 -94 0 -94 -44 -26 c-79 -46 -136 -141
-136 -226 0 -92 69 -198 157 -241 55 -27 150 -29 208 -5 49 21 110 78 136 129
62 119 14 272 -107 343 l-45 26 3 92 3 91 228 3 c177 2 228 0 232 -10 5 -14
195 -1707 195 -1738 0 -20 -16 -20 -1310 -20 -1278 0 -1310 0 -1310 19 0 10
43 402 95 870 52 468 95 858 95 866 0 13 30 15 233 13 l232 -3 3 -91z m150
-290 c55 -62 -3 -160 -83 -140 -58 15 -83 85 -49 134 33 48 92 50 132 6z
m1130 0 c55 -62 -3 -160 -83 -140 -58 15 -83 85 -49 134 33 48 92 50 132 6z"/>
</g>
</svg>
